<svg height="64px" width="64px" version="1.1" id="Layer_1" xmlns="http://www.w3.org/2000/svg" xmlns:xlink="http://www.w3.org/1999/xlink" viewBox="0 0 512 512" xml:space="preserve" fill="#000000"><g id="SVGRepo_bgCarrier" stroke-width="0"></g><g id="SVGRepo_tracerCarrier" stroke-linecap="round" stroke-linejoin="round"></g><g id="SVGRepo_iconCarrier"> <path style="fill:#FDC794;" d="M459.09,176.552c0-19.421-15.89-35.31-35.31-35.31c-19.421,0-35.31,15.89-35.31,35.31v61.793V70.621 c0-19.421-15.89-35.31-35.31-35.31c-19.421,0-35.31,21.186-35.31,35.31v105.931V35.31c0-19.421-15.89-35.31-35.31-35.31 s-35.31,13.241-35.31,35.31v141.241V73.269c0-24.717-15.89-37.959-35.31-37.959s-35.31,15.007-35.31,35.31v194.207l-15.89-23.834 c-17.655-30.897-60.028-45.021-88.276-34.428c-4.414,0.883-7.062,3.531-10.593,5.297c-10.593,7.062-8.828,15.007-8.828,17.655 s50.317,53.848,79.448,105.931c0,0,25.6,42.372,52.966,70.621v26.483c0,44.138,35.31,79.448,79.448,79.448h88.276 c34.428,0,69.738-29.131,77.683-62.676c1.766-7.945,5.297-19.421,10.593-25.6c7.945-8.828,17.655-30.897,17.655-61.793 c0-6.179,0-71.503,0-79.448l0,0V176.552z"></path> <g> <path style="fill:#F9A671;" d="M220.745,441.379c-2.648,0-4.414-0.883-6.179-2.648c-2.648-3.531-7.062-7.062-11.476-11.476 c-5.297-5.297-11.476-10.593-15.007-15.007c-3.531-3.531-2.648-8.828,0.883-12.359s8.828-2.648,12.359,0.883 c3.531,3.531,8.828,8.828,14.124,14.124c4.414,4.414,9.71,8.828,12.359,12.359c3.531,3.531,3.531,8.828-0.883,12.359 C225.159,440.497,222.51,441.379,220.745,441.379z"></path> <path style="fill:#F9A671;" d="M185.434,291.31c-3.531,0-6.179-1.766-7.945-5.297l-8.828-17.655c-1.766-4.414,0-9.71,3.531-11.476 c4.414-1.766,9.71,0,11.476,3.531l8.828,17.655c1.766,4.414,0,9.71-3.531,11.476C188.083,291.31,187.2,291.31,185.434,291.31z"></path> <path style="fill:#F9A671;" d="M247.228,258.648c-5.297,0-8.828-3.531-8.828-8.828v-179.2c0-5.297,3.531-8.828,8.828-8.828 s8.828,3.531,8.828,8.828v179.2C256.055,255.117,252.524,258.648,247.228,258.648z"></path> <path style="fill:#F9A671;" d="M317.848,232.166c-5.297,0-8.828-3.531-8.828-8.828V61.793c0-5.297,3.531-8.828,8.828-8.828 c5.297,0,8.828,3.531,8.828,8.828v161.545C326.676,228.634,323.145,232.166,317.848,232.166z"></path> <path style="fill:#F9A671;" d="M388.469,267.476c-5.297,0-8.828-3.531-8.828-8.828v-82.097c0-5.297,3.531-8.828,8.828-8.828 s8.828,3.531,8.828,8.828v82.097C397.297,263.945,393.766,267.476,388.469,267.476z"></path> <path style="fill:#F9A671;" d="M406.124,441.379c-3.531,0-7.062-2.648-8.828-6.179c-0.883-4.414,1.766-9.71,6.179-10.593 c22.952-6.179,28.248-13.241,30.014-20.303c1.766-4.414,6.179-7.062,10.593-6.179c4.414,1.766,7.062,6.179,6.179,10.593 c-6.179,20.303-25.6,28.248-42.372,32.662C407.89,441.379,407.007,441.379,406.124,441.379z"></path> </g> </g></svg>